<?xml version="1.0" encoding="utf-8"?>
<!-- Created by UniConvertor 2.0rc5 (https://sk1project.net/) -->
<svg xmlns="http://www.w3.org/2000/svg" height="18.0px" width="377.0px" version="1.1" xmlns:xlink="http://www.w3.org/1999/xlink" id="699ee4f6-f951-11ed-9818-0242ac150005">

<g>
	<path style="stroke:#e0e0e0;stroke-width:0.67;stroke-miterlimit:4.0;fill:#ffffff;" d="M 375.0,0.6699 L 341.0,0.6699 C 340.735,0.6699 340.48,0.7753 340.293,0.9628 340.105,1.1503 340.0,1.4047 340.0,1.6699 L 340.0,16.3299 C 340.0,16.5951 340.105,16.8495 340.293,17.037 340.48,17.2246 340.735,17.3299 341.0,17.3299 L 375.0,17.3299 C 375.265,17.3299 375.52,17.2246 375.707,17.037 375.895,16.8495 376.0,16.5951 376.0,16.3299 L 376.0,1.6699 C 376.0,1.4047 375.895,1.1503 375.707,0.9628 375.52,0.7753 375.265,0.6699 375.0,0.6699 L 375.0,0.6699 Z" />
	<path style="fill:#4e4e4e;" d="M 355.25,6.81 L 353.93,6.81 353.93,7.81 355.47,7.81 355.47,8.25 353.38,8.25 353.38,5.0 355.45,5.0 355.45,5.45 353.93,5.45 353.93,6.34 355.25,6.34 355.25,6.81 Z M 357.71,7.49 L 356.47,7.49 356.21,8.23 355.64,8.23 356.85,5.0 357.34,5.0 358.55,8.2 358.0,8.2 357.71,7.49 Z M 356.63,7.0 L 357.56,7.0 357.09,5.67 356.63,7.0 Z M 360.63,7.37 C 360.633,7.3071 360.62,7.2444 360.594,7.1871 360.568,7.1297 360.529,7.0793 360.48,7.04 360.315,6.9381 360.137,6.8606 359.95,6.81 359.731,6.7546 359.522,6.667 359.33,6.55 359.201,6.4815 359.093,6.3793 359.017,6.2543 358.941,6.1293 358.901,5.9862 358.9,5.84 358.897,5.7164 358.924,5.5939 358.978,5.4826 359.032,5.3714 359.111,5.2745 359.21,5.2 359.443,5.047 359.722,4.9766 360.0,5.0 360.203,4.9961 360.404,5.0371 360.59,5.12 360.761,5.1981 360.906,5.3229 361.01,5.48 361.11,5.6274 361.162,5.8019 361.16,5.98 L 360.6,5.98 C 360.605,5.907 360.594,5.8338 360.566,5.7661 360.538,5.6984 360.495,5.6381 360.44,5.59 360.379,5.5362 360.307,5.4953 360.23,5.4695 360.153,5.4437 360.071,5.4337 359.99,5.44 359.84,5.4312 359.692,5.4735 359.57,5.56 359.521,5.5993 359.481,5.6497 359.455,5.7071 359.429,5.7644 359.417,5.8271 359.42,5.89 359.423,5.9473 359.439,6.0031 359.467,6.0534 359.494,6.1036 359.533,6.1469 359.58,6.18 359.748,6.2828 359.929,6.3603 360.12,6.41 360.33,6.4665 360.532,6.5505 360.72,6.66 360.837,6.7511 360.933,6.8673 361.0,7.0 361.075,7.1307 361.113,7.2794 361.11,7.43 361.113,7.5524 361.087,7.6737 361.033,7.7835 360.979,7.8933 360.899,7.9883 360.8,8.06 360.559,8.2323 360.266,8.317 359.97,8.3 359.75,8.3033 359.531,8.2589 359.33,8.17 359.15,8.093 358.994,7.9686 358.88,7.81 358.771,7.6589 358.715,7.4762 358.72,7.29 L 359.27,7.29 C 359.266,7.3691 359.28,7.4481 359.311,7.5209 359.342,7.5936 359.39,7.6583 359.45,7.71 359.601,7.8182 359.784,7.8711 359.97,7.86 360.126,7.8703 360.281,7.828 360.41,7.74 360.465,7.704 360.51,7.655 360.541,7.5975 360.572,7.5399 360.589,7.4756 360.59,7.41 L 360.63,7.37 Z M 362.72,6.51 L 363.42,5.0 364.0,5.0 362.93,7.0 362.93,8.23 362.37,8.23 362.37,7.06 361.3,5.06 361.91,5.06 362.72,6.51 Z M 367.41,6.77 L 366.09,6.77 366.09,7.77 367.63,7.77 367.63,8.21 365.5,8.21 365.5,5.0 367.58,5.0 367.58,5.45 366.05,5.45 366.05,6.34 367.37,6.34 367.41,6.77 Z M 368.76,5.0 L 369.69,7.46 370.61,5.0 371.33,5.0 371.33,8.2 370.77,8.2 370.77,7.18 370.83,5.77 369.88,8.23 369.48,8.23 368.54,5.77 368.6,7.18 368.6,8.23 368.0,8.23 368.0,5.0 368.76,5.0 Z M 372.57,8.2 L 372.0,8.2 372.0,5.0 372.55,5.0 372.57,8.2 Z M 355.93,11.69 C 355.938,11.9718 355.883,12.2518 355.77,12.51 355.673,12.737 355.509,12.9289 355.3,13.06 355.092,13.1857 354.853,13.2514 354.61,13.25 354.364,13.2502 354.122,13.1846 353.91,13.06 353.706,12.9276 353.543,12.7405 353.44,12.52 353.328,12.2648 353.274,11.9884 353.28,11.71 L 353.28,11.53 C 353.273,11.2451 353.328,10.9621 353.44,10.7 353.54,10.475 353.703,10.2839 353.91,10.15 354.116,10.0197 354.356,9.9536 354.6,9.96 354.847,9.954 355.09,10.02 355.3,10.15 355.505,10.2781 355.666,10.4668 355.76,10.69 355.877,10.9473 355.935,11.2274 355.93,11.51 L 355.93,11.69 Z M 355.38,11.52 C 355.399,11.2345 355.325,10.9504 355.17,10.71 355.108,10.6167 355.023,10.5409 354.923,10.4901 354.823,10.4393 354.712,10.4151 354.6,10.42 354.49,10.4178 354.381,10.4432 354.283,10.4938 354.185,10.5445 354.102,10.6188 354.04,10.71 353.89,10.9453 353.816,11.2213 353.83,11.5 L 353.83,11.69 C 353.812,11.9754 353.886,12.2591 354.04,12.5 354.106,12.589 354.192,12.6612 354.291,12.711 354.39,12.7608 354.499,12.7867 354.61,12.7867 354.721,12.7867 354.83,12.7608 354.929,12.711 355.028,12.6612 355.114,12.589 355.18,12.5 355.327,12.2528 355.397,11.9672 355.38,11.68 L 355.38,11.52 Z M 357.04,12.02 L 357.04,13.2 356.48,13.2 356.48,10.0 357.71,10.0 C 358.018,9.9862 358.32,10.0858 358.56,10.28 358.662,10.3744 358.743,10.4889 358.798,10.6163 358.853,10.7437 358.881,10.8812 358.88,11.02 358.887,11.1572 358.862,11.2941 358.809,11.4206 358.755,11.547 358.673,11.6596 358.57,11.75 358.322,11.9428 358.013,12.0388 357.7,12.02 L 357.04,12.02 Z M 357.04,11.57 L 357.71,11.57 C 357.872,11.5813 358.033,11.5313 358.16,11.43 358.215,11.3799 358.258,11.3179 358.286,11.2486 358.314,11.1792 358.325,11.1045 358.32,11.03 358.324,10.9527 358.312,10.8753 358.285,10.8029 358.257,10.7306 358.215,10.6648 358.16,10.61 358.037,10.5055 357.881,10.4487 357.72,10.45 L 357.0,10.45 357.04,11.57 Z M 361.67,10.45 L 360.67,10.45 360.67,13.2 360.12,13.2 360.12,10.48 359.12,10.48 359.12,10.0 361.65,10.0 361.67,10.45 Z M 362.67,13.2 L 362.12,13.2 362.12,10.0 362.67,10.0 362.67,13.2 Z M 365.91,11.69 C 365.918,11.9718 365.863,12.2518 365.75,12.51 365.65,12.735 365.486,12.9261 365.28,13.06 365.072,13.1857 364.833,13.2514 364.59,13.25 364.344,13.2502 364.102,13.1846 363.89,13.06 363.686,12.9276 363.523,12.7405 363.42,12.52 363.308,12.2648 363.254,11.9884 363.26,11.71 L 363.26,11.53 C 363.253,11.2451 363.308,10.9621 363.42,10.7 363.52,10.475 363.683,10.2839 363.89,10.15 364.096,10.0197 364.336,9.9536 364.58,9.96 364.826,9.9551 365.069,10.021 365.28,10.15 365.485,10.2781 365.646,10.4668 365.74,10.69 365.857,10.9473 365.915,11.2274 365.91,11.51 L 365.91,11.69 Z M 365.35,11.52 C 365.372,11.2356 365.302,10.9516 365.15,10.71 365.088,10.6167 365.003,10.5409 364.903,10.4901 364.803,10.4393 364.692,10.4151 364.58,10.42 364.47,10.4178 364.361,10.4432 364.263,10.4938 364.165,10.5445 364.082,10.6188 364.02,10.71 363.87,10.9453 363.796,11.2213 363.81,11.5 L 363.81,11.69 C 363.792,11.9754 363.866,12.2591 364.02,12.5 364.082,12.5934 364.167,12.6692 364.267,12.72 364.367,12.7708 364.478,12.7949 364.59,12.79 364.699,12.7952 364.808,12.7722 364.906,12.7232 365.004,12.6741 365.088,12.6008 365.15,12.51 365.302,12.2648 365.372,11.9776 365.35,11.69 L 365.35,11.52 Z M 369.0,13.23 L 368.45,13.23 367.0,11.0 367.0,13.27 366.44,13.27 366.44,10.0 367.0,10.0 368.43,12.28 368.43,10.0 369.0,10.0 369.0,13.23 Z M 371.33,12.41 C 371.333,12.3471 371.32,12.2844 371.294,12.2271 371.268,12.1697 371.229,12.1193 371.18,12.08 371.015,11.9781 370.837,11.9006 370.65,11.85 370.431,11.7946 370.222,11.707 370.03,11.59 369.901,11.5215 369.793,11.4193 369.717,11.2943 369.641,11.1693 369.601,11.0262 369.6,10.88 369.597,10.7564 369.624,10.6339 369.678,10.5226 369.732,10.4114 369.811,10.3145 369.91,10.24 370.145,10.0626 370.436,9.9741 370.73,9.99 370.933,9.9861 371.134,10.0271 371.32,10.11 371.49,10.1853 371.633,10.3109 371.73,10.47 371.834,10.6152 371.887,10.7913 371.88,10.97 L 371.33,10.97 C 371.335,10.897 371.324,10.8238 371.296,10.7561 371.268,10.6884 371.225,10.6281 371.17,10.58 371.109,10.5262 371.037,10.4853 370.96,10.4595 370.883,10.4337 370.801,10.4237 370.72,10.43 370.57,10.4212 370.422,10.4635 370.3,10.55 370.251,10.5893 370.211,10.6397 370.185,10.6971 370.159,10.7544 370.147,10.8171 370.15,10.88 370.15,10.9378 370.165,10.9945 370.193,11.0451 370.221,11.0958 370.261,11.1387 370.31,11.17 370.478,11.2728 370.659,11.3503 370.85,11.4 371.06,11.4564 371.262,11.5405 371.45,11.65 371.584,11.7325 371.697,11.8455 371.78,11.98 371.855,12.1107 371.893,12.2594 371.89,12.41 371.891,12.532 371.864,12.6525 371.81,12.7619 371.756,12.8713 371.677,12.9666 371.58,13.04 371.339,13.2123 371.046,13.297 370.75,13.28 370.53,13.2842 370.311,13.2398 370.11,13.15 369.928,13.0768 369.771,12.9516 369.66,12.79 369.551,12.6389 369.495,12.4562 369.5,12.27 L 370.05,12.27 C 370.046,12.3491 370.06,12.4281 370.091,12.5009 370.122,12.5736 370.17,12.6383 370.23,12.69 370.38,12.7997 370.564,12.8528 370.75,12.84 370.903,12.852 371.055,12.8095 371.18,12.72 371.23,12.6855 371.271,12.6391 371.299,12.5851 371.327,12.531 371.341,12.4709 371.34,12.41 L 371.33,12.41 Z" />
	<path style="fill-rule:evenodd;fill:#212121;" d="M 349.45,5.84 L 349.45,5.0 348.67,5.0 348.67,5.84 345.53,5.84 345.53,5.0 344.74,5.0 344.74,5.84 344.35,5.84 C 344.244,5.8439 344.139,5.8687 344.042,5.913 343.945,5.9573 343.858,6.0203 343.786,6.0983 343.713,6.1763 343.657,6.2679 343.62,6.3677 343.583,6.4675 343.566,6.5736 343.57,6.68 L 343.57,12.16 C 343.565,12.3758 343.644,12.5851 343.792,12.7423 343.94,12.8996 344.144,12.9922 344.36,13.0 L 349.85,13.0 C 350.066,12.9922 350.27,12.8996 350.418,12.7423 350.565,12.5851 350.645,12.3758 350.64,12.16 L 350.64,6.68 C 350.645,6.4642 350.565,6.2549 350.418,6.0977 350.27,5.9404 350.066,5.8478 349.85,5.84 L 349.45,5.84 Z M 344.35,12.16 L 344.35,7.53 349.84,7.53 349.84,12.16 344.35,12.16 Z" />
	<path style="fill:#212121;" d="M 346.22,9.8999 C 346.418,9.8999 346.611,9.8413 346.776,9.7314 346.94,9.6215 347.068,9.4653 347.144,9.2826 347.22,9.0999 347.24,8.8988 347.201,8.7048 347.162,8.5108 347.067,8.3326 346.927,8.1928 346.787,8.0529 346.609,7.9577 346.415,7.9191 346.221,7.8805 346.02,7.9003 345.838,7.976 345.655,8.0517 345.499,8.1799 345.389,8.3443 345.279,8.5088 345.22,8.7021 345.22,8.8999 345.22,9.1651 345.326,9.4195 345.513,9.607 345.701,9.7945 345.955,9.8999 346.22,9.8999 Z" />
	<path style="fill:#212121;" d="M 347.79,11.79 C 347.988,11.79 348.181,11.7314 348.346,11.6215 348.51,11.5116 348.638,11.3554 348.714,11.1727 348.79,10.99 348.809,10.7889 348.771,10.5949 348.732,10.401 348.637,10.2228 348.497,10.0829 348.357,9.9431 348.179,9.8478 347.985,9.8093 347.791,9.7707 347.59,9.7905 347.407,9.8662 347.225,9.9419 347.068,10.07 346.959,10.2345 346.849,10.3989 346.79,10.5923 346.79,10.79 346.79,11.0553 346.895,11.3096 347.083,11.4971 347.27,11.6847 347.525,11.79 347.79,11.79 Z" />
	<path style="stroke-miterlimit:4.0;stroke:#212121;stroke-width:0.63;stroke-linecap:square;fill:none;" d="M 347.76,8.5801 L 346.11,11.1401" />
	<path style="stroke:#e0e0e0;stroke-width:0.67;stroke-miterlimit:4.0;fill:#ffffff;" d="M 333.67,0.6699 L 299.67,0.6699 C 299.405,0.6699 299.15,0.7753 298.963,0.9628 298.775,1.1503 298.67,1.4047 298.67,1.6699 L 298.67,16.3299 C 298.67,16.5951 298.775,16.8495 298.963,17.037 299.15,17.2246 299.405,17.3299 299.67,17.3299 L 333.67,17.3299 C 333.935,17.3299 334.189,17.2246 334.377,17.037 334.565,16.8495 334.67,16.5951 334.67,16.3299 L 334.67,1.6699 C 334.67,1.4047 334.565,1.1503 334.377,0.9628 334.189,0.7753 333.935,0.6699 333.67,0.6699 L 333.67,0.6699 Z" />
	<path style="fill:#4e4e4e;" d="M 312.47,7.1898 C 312.451,7.4954 312.315,7.782 312.09,7.9898 311.842,8.1913 311.529,8.2945 311.21,8.2798 310.974,8.2848 310.742,8.2223 310.54,8.0998 310.345,7.9711 310.189,7.7912 310.09,7.5798 309.978,7.3351 309.92,7.069 309.92,6.7998 L 309.92,6.5098 C 309.918,6.235 309.972,5.9627 310.08,5.7098 310.184,5.4921 310.349,5.3092 310.555,5.1832 310.761,5.0572 310.999,4.9935 311.24,4.9998 311.55,4.9859 311.853,5.0895 312.09,5.2898 312.316,5.5007 312.452,5.7909 312.47,6.0998 L 311.91,6.0998 C 311.906,5.9145 311.835,5.737 311.71,5.5998 311.579,5.4909 311.41,5.4372 311.24,5.4498 311.131,5.4444 311.023,5.4664 310.926,5.5135 310.828,5.5607 310.743,5.6316 310.68,5.7198 310.537,5.9503 310.467,6.2188 310.48,6.4898 L 310.48,6.7798 C 310.467,7.0558 310.533,7.3298 310.67,7.5698 310.729,7.6578 310.81,7.729 310.904,7.7763 310.999,7.8236 311.104,7.8455 311.21,7.8398 311.387,7.8556 311.562,7.8018 311.7,7.6898 311.83,7.5594 311.905,7.384 311.91,7.1998 L 312.47,7.1898 Z M 314.76,7.4898 L 313.52,7.4898 313.26,8.2298 312.68,8.2298 313.89,4.9998 314.39,4.9998 315.6,8.1998 315.0,8.1998 314.76,7.4898 Z M 313.67,6.9998 L 314.6,6.9998 314.14,5.6698 313.67,6.9998 Z M 317.67,7.3698 C 317.671,7.3072 317.657,7.2452 317.631,7.1882 317.606,7.1312 317.567,7.0806 317.52,7.0398 317.352,6.938 317.17,6.8606 316.98,6.8098 316.764,6.7566 316.558,6.6688 316.37,6.5498 316.24,6.4817 316.13,6.3799 316.053,6.255 315.975,6.1301 315.933,5.9867 315.93,5.8398 315.927,5.7162 315.954,5.5937 316.008,5.4824 316.062,5.3712 316.141,5.2743 316.24,5.1998 316.466,5.0545 316.732,4.9844 317.0,4.9998 317.206,4.9961 317.411,5.037 317.6,5.1198 317.766,5.1967 317.908,5.3178 318.01,5.4698 318.109,5.6213 318.161,5.7988 318.16,5.9798 L 317.61,5.9798 C 317.613,5.9071 317.601,5.8345 317.573,5.7671 317.545,5.6998 317.503,5.6392 317.45,5.5898 317.325,5.484 317.164,5.4303 317.0,5.4398 316.85,5.431 316.702,5.4733 316.58,5.5598 316.53,5.5986 316.489,5.6486 316.461,5.7059 316.433,5.7632 316.419,5.8262 316.42,5.8898 316.423,5.9483 316.439,6.0053 316.469,6.0559 316.499,6.1064 316.54,6.149 316.59,6.1798 316.755,6.2817 316.933,6.3592 317.12,6.4098 317.33,6.4662 317.532,6.5503 317.72,6.6598 317.861,6.7375 317.978,6.8514 318.06,6.9898 318.13,7.1184 318.165,7.2634 318.16,7.4098 318.164,7.5337 318.138,7.6567 318.084,7.7683 318.03,7.8799 317.95,7.9765 317.85,8.0498 317.609,8.2221 317.316,8.3068 317.02,8.2898 316.8,8.2882 316.583,8.2441 316.38,8.1598 316.202,8.0796 316.047,7.9558 315.93,7.7998 315.821,7.6487 315.765,7.466 315.77,7.2798 L 316.33,7.2798 C 316.326,7.3589 316.34,7.4379 316.371,7.5106 316.403,7.5834 316.45,7.6481 316.51,7.6998 316.657,7.808 316.838,7.8611 317.02,7.8498 317.176,7.8617 317.331,7.8193 317.46,7.7298 317.515,7.6967 317.561,7.6498 317.592,7.5937 317.624,7.5376 317.64,7.4742 317.64,7.4098 L 317.67,7.3698 Z M 321.25,8.1898 L 320.7,8.1898 320.7,6.8098 319.26,6.8098 319.26,8.2298 318.71,8.2298 318.71,4.9998 319.26,4.9998 319.26,6.3698 320.7,6.3698 320.7,4.9998 321.25,4.9998 321.25,8.1898 Z M 325.58,6.6798 C 325.588,6.9616 325.533,7.2416 325.42,7.4998 325.323,7.7268 325.159,7.9187 324.95,8.0498 324.741,8.1739 324.503,8.2395 324.26,8.2395 324.017,8.2395 323.779,8.1739 323.57,8.0498 323.364,7.9199 323.2,7.7321 323.1,7.5098 322.98,7.2536 322.921,6.9727 322.93,6.6898 L 322.93,6.5498 C 322.923,6.2681 322.978,5.9883 323.09,5.7298 323.19,5.5048 323.353,5.3137 323.56,5.1798 323.714,5.0798 323.888,5.0142 324.07,4.9873 324.252,4.9605 324.437,4.9732 324.613,5.0244 324.79,5.0756 324.953,5.1643 325.092,5.2843 325.232,5.4042 325.343,5.5528 325.42,5.7198 325.528,5.9794 325.583,6.2584 325.58,6.5398 L 325.58,6.6798 Z M 325.0,6.5498 C 325.018,6.2612 324.944,5.9744 324.79,5.7298 324.727,5.6404 324.643,5.5681 324.545,5.5192 324.448,5.4703 324.339,5.4465 324.23,5.4498 324.119,5.4466 324.01,5.4704 323.91,5.5192 323.811,5.568 323.725,5.6403 323.66,5.7298 323.512,5.9695 323.438,6.2481 323.45,6.5298 L 323.45,6.7198 C 323.432,7.0052 323.506,7.2889 323.66,7.5298 323.724,7.6212 323.809,7.6954 323.909,7.746 324.008,7.7966 324.118,7.8219 324.23,7.8198 324.341,7.8258 324.452,7.8032 324.551,7.7542 324.651,7.7051 324.737,7.6313 324.8,7.5398 324.947,7.2926 325.017,7.007 325.0,6.7198 L 325.0,6.5498 Z M 328.64,8.2298 L 328.09,8.2298 326.66,5.9998 326.66,8.2298 326.11,8.2298 326.11,4.9998 326.66,4.9998 328.09,7.2798 328.09,4.9998 328.64,4.9998 328.64,8.2298 Z M 310.03,13.2298 L 310.03,9.9998 311.0,9.9998 C 311.262,9.9987 311.52,10.0641 311.75,10.1898 311.968,10.3177 312.145,10.505 312.26,10.7298 312.383,10.9748 312.445,11.2458 312.44,11.5198 L 312.44,11.6798 C 312.447,11.9572 312.385,12.232 312.26,12.4798 312.144,12.7073 311.963,12.8953 311.74,13.0198 311.506,13.1425 311.244,13.2044 310.98,13.1998 L 310.03,13.2298 Z M 310.58,10.4798 L 310.58,12.7898 311.0,12.7898 C 311.123,12.7981 311.247,12.7781 311.361,12.7313 311.476,12.6845 311.578,12.6122 311.66,12.5198 311.832,12.294 311.918,12.0134 311.9,11.7298 L 311.9,11.5498 C 311.922,11.2688 311.844,10.9891 311.68,10.7598 311.6,10.6644 311.498,10.5893 311.384,10.5406 311.269,10.492 311.144,10.4711 311.02,10.4798 L 310.58,10.4798 Z M 314.84,11.7998 L 313.52,11.7998 313.52,12.7998 315.06,12.7998 315.06,13.2398 313.0,13.2398 313.0,9.9998 315.0,9.9998 315.0,10.4498 313.48,10.4498 313.48,11.3398 314.8,11.3398 314.84,11.7998 Z M 316.07,12.7998 L 317.52,12.7998 317.52,13.2398 315.52,13.2398 315.52,9.9998 316.08,9.9998 316.07,12.7998 Z M 318.53,13.2398 L 318.0,13.2398 318.0,9.9998 318.55,9.9998 318.53,13.2398 Z M 320.34,12.5498 L 321.15,10.0398 321.77,10.0398 320.61,13.2398 320.08,13.2398 318.93,9.9998 319.54,9.9998 320.34,12.5498 Z M 324.0,11.7998 L 322.68,11.7998 322.68,12.7998 324.22,12.7998 324.22,13.2398 322.13,13.2398 322.13,9.9998 324.2,9.9998 324.2,10.4498 322.68,10.4498 322.68,11.3398 324.0,11.3398 324.0,11.7998 Z M 325.85,11.9998 L 325.23,11.9998 325.23,13.2298 324.67,13.2298 324.67,9.9998 325.8,9.9998 C 326.104,9.9827 326.404,10.071 326.65,10.2498 326.751,10.3392 326.831,10.4504 326.883,10.5752 326.935,10.6999 326.958,10.8349 326.95,10.9698 326.952,11.1604 326.9,11.3478 326.8,11.5098 326.69,11.6573 326.541,11.7715 326.37,11.8398 L 327.09,13.1698 326.49,13.1698 325.85,11.9998 Z M 325.23,11.5498 L 325.8,11.5498 C 325.959,11.5626 326.117,11.5123 326.24,11.4098 326.295,11.3617 326.338,11.3015 326.366,11.2337 326.394,11.166 326.406,11.0928 326.4,11.0198 326.405,10.9478 326.394,10.8757 326.368,10.8084 326.342,10.7411 326.302,10.6801 326.25,10.6298 326.192,10.5771 326.124,10.5366 326.05,10.5108 325.976,10.4851 325.898,10.4745 325.82,10.4798 L 325.23,10.4798 325.23,11.5498 Z M 328.42,11.5498 L 329.16,10.0298 329.77,10.0298 328.7,12.0298 328.7,13.1998 328.14,13.1998 328.14,12.0598 327.07,10.0598 327.68,10.0598 328.42,11.5498 Z" />
	<path style="fill:#212121;" d="M 303.45,8.1299 L 303.27,8.6299 305.86,8.6299 C 305.805,8.9306 305.637,9.1989 305.39,9.3799 304.943,9.6613 304.418,9.7943 303.89,9.7599 L 303.35,9.7599 303.35,10.3299 C 303.594,10.3287 303.834,10.3982 304.04,10.5299 304.246,10.6829 304.425,10.8687 304.57,11.0799 L 306.36,13.4999 307.48,13.4999 305.39,10.8099 C 305.242,10.589 305.064,10.3903 304.86,10.2199 305.346,10.1533 305.802,9.9446 306.17,9.6199 306.453,9.3586 306.631,9.003 306.67,8.6199 L 307.82,8.6199 307.98,8.1199 306.68,8.1199 C 306.661,7.8741 306.59,7.635 306.473,7.418 306.356,7.2011 306.195,7.0109 306.0,6.8599 L 307.79,6.8599 307.97,6.3599 303.41,6.3599 303.25,6.8599 304.16,6.8599 C 304.604,6.8315 305.043,6.9706 305.39,7.2499 305.638,7.479 305.792,7.793 305.82,8.1299 L 303.45,8.1299 Z" />
	<path style="stroke:#e0e0e0;stroke-width:0.67;stroke-miterlimit:4.0;fill:#ffffff;" d="M 292.33,0.6699 L 258.33,0.6699 C 258.065,0.6699 257.811,0.7753 257.623,0.9628 257.435,1.1503 257.33,1.4047 257.33,1.6699 L 257.33,16.3299 C 257.33,16.5951 257.435,16.8495 257.623,17.037 257.811,17.2246 258.065,17.3299 258.33,17.3299 L 292.33,17.3299 C 292.595,17.3299 292.85,17.2246 293.037,17.037 293.225,16.8495 293.33,16.5951 293.33,16.3299 L 293.33,1.6699 C 293.33,1.4047 293.225,1.1503 293.037,0.9628 292.85,0.7753 292.595,0.6699 292.33,0.6699 L 292.33,0.6699 Z" />
	<path style="fill:#4e4e4e;" d="M 272.86,7.9998 L 272.31,7.9998 270.88,5.7298 270.88,7.9998 270.33,7.9998 270.33,4.7998 270.88,4.7998 272.31,7.0798 272.31,4.7998 272.86,4.7998 272.86,7.9998 Z M 275.39,6.5698 L 274.08,6.5698 274.08,7.5698 275.61,7.5698 275.61,7.9998 273.52,7.9998 273.52,4.7998 275.6,4.7998 275.6,5.2498 274.08,5.2498 274.08,6.1298 275.39,6.1298 275.39,6.5698 Z M 278.39,5.2498 L 277.39,5.2498 277.39,7.9998 276.84,7.9998 276.84,5.2498 275.84,5.2498 275.84,4.7998 278.38,4.7998 278.39,5.2498 Z M 270.33,12.9998 L 270.33,9.7998 271.42,9.7998 C 271.714,9.7786 272.006,9.856 272.25,10.0198 272.346,10.0973 272.422,10.197 272.47,10.3102 272.519,10.4235 272.54,10.5469 272.53,10.6698 272.53,10.8089 272.488,10.9449 272.41,11.0598 272.328,11.1831 272.209,11.2775 272.07,11.3298 272.228,11.3709 272.366,11.4665 272.46,11.5998 272.563,11.7343 272.616,11.9005 272.61,12.0698 272.618,12.1993 272.595,12.3288 272.545,12.4484 272.495,12.568 272.418,12.6746 272.32,12.7598 272.08,12.9351 271.786,13.0201 271.49,12.9998 L 270.33,12.9998 Z M 270.88,11.5598 L 270.88,12.5598 271.5,12.5598 C 271.648,12.5643 271.792,12.5184 271.91,12.4298 271.959,12.384 271.996,12.3279 272.021,12.2656 272.045,12.2033 272.055,12.1364 272.05,12.0698 272.062,12.0011 272.057,11.9305 272.037,11.8639 272.016,11.7973 271.98,11.7365 271.931,11.6867 271.882,11.6369 271.822,11.5994 271.756,11.5774 271.69,11.5553 271.619,11.5493 271.55,11.5598 L 270.88,11.5598 Z M 270.88,11.1498 L 271.43,11.1498 C 271.573,11.1573 271.715,11.1149 271.83,11.0298 271.879,10.9905 271.919,10.9401 271.945,10.8828 271.971,10.8254 271.983,10.7627 271.98,10.6998 271.986,10.6346 271.976,10.569 271.952,10.5082 271.927,10.4474 271.889,10.3932 271.84,10.3498 271.714,10.2724 271.567,10.2374 271.42,10.2498 L 270.88,10.2498 270.88,11.1498 Z M 275.0,12.2598 L 273.77,12.2598 273.51,12.9998 272.93,12.9998 274.14,9.7998 274.64,9.7998 275.8,12.9998 275.22,12.9998 275.0,12.2598 Z M 273.92,11.8098 L 274.85,11.8098 274.38,10.4798 273.92,11.8098 Z M 278.7,12.9998 L 278.14,12.9998 276.72,10.7298 276.72,12.9998 276.16,12.9998 276.16,9.7998 276.72,9.7998 278.15,12.0798 278.15,9.7998 278.7,9.7998 278.7,12.9998 Z M 280.27,11.6198 L 279.91,11.9998 279.91,12.9998 279.36,12.9998 279.36,9.7998 279.91,9.7998 279.91,11.2998 280.22,10.9198 281.16,9.7998 281.83,9.7998 280.64,11.2198 281.9,12.9998 281.24,12.9998 280.27,11.6198 Z M 282.78,12.9998 L 282.23,12.9998 282.23,9.7998 282.78,9.7998 282.78,12.9998 Z M 286.0,12.9998 L 285.45,12.9998 284.0,10.7298 284.0,12.9998 283.44,12.9998 283.44,9.7998 284.0,9.7998 285.43,12.0798 285.43,9.7998 286.0,9.7998 286.0,12.9998 Z M 289.11,12.5798 C 288.989,12.7424 288.822,12.8645 288.63,12.9298 288.406,13.0098 288.168,13.0471 287.93,13.0398 287.682,13.0444 287.436,12.9822 287.22,12.8598 287.009,12.7412 286.841,12.5593 286.74,12.3398 286.624,12.0928 286.566,11.8226 286.57,11.5498 L 286.57,11.2998 C 286.541,10.8926 286.666,10.4894 286.92,10.1698 287.042,10.0261 287.196,9.9138 287.37,9.8424 287.544,9.771 287.733,9.7427 287.92,9.7598 288.226,9.7394 288.528,9.8319 288.77,10.0198 288.99,10.2147 289.126,10.487 289.15,10.7798 L 288.61,10.7798 C 288.604,10.697 288.581,10.6162 288.544,10.5422 288.506,10.4681 288.454,10.4022 288.391,10.3483 288.328,10.2944 288.254,10.2536 288.175,10.2281 288.096,10.2026 288.013,10.193 287.93,10.1998 287.822,10.1944 287.714,10.2163 287.616,10.2635 287.518,10.3107 287.433,10.3816 287.37,10.4698 287.224,10.7066 287.151,10.9815 287.16,11.2598 L 287.16,11.5098 C 287.146,11.7931 287.223,12.0734 287.38,12.3098 287.451,12.4031 287.544,12.478 287.65,12.5285 287.756,12.5789 287.873,12.6033 287.99,12.5998 288.099,12.6117 288.21,12.601 288.315,12.5683 288.42,12.5357 288.517,12.4817 288.6,12.4098 L 288.6,11.7798 287.94,11.7798 287.94,11.3598 289.15,11.3598 289.11,12.5798 Z" />
	<path style="fill:#000000;" d="M 263.83,4.0 C 264.086,4.0128 264.328,4.1238 264.505,4.31 264.682,4.4962 264.78,4.7432 264.78,5.0 L 264.78,6.0 C 265.393,6.0601 265.962,6.3483 266.373,6.8075 266.784,7.2668 267.008,7.8637 267.0,8.48 L 267.0,11.08 C 267.0,11.3978 266.937,11.7125 266.816,12.0061 266.694,12.2997 266.516,12.5665 266.291,12.7912 266.067,13.0159 265.8,13.1942 265.506,13.3158 265.213,13.4374 264.898,13.5 264.58,13.5 264.262,13.5 263.948,13.4374 263.654,13.3158 263.36,13.1942 263.094,13.0159 262.869,12.7912 262.644,12.5665 262.466,12.2997 262.344,12.0061 262.223,11.7125 262.16,11.3978 262.16,11.08 L 262.16,8.48 C 262.152,7.8668 262.373,7.2725 262.78,6.8137 263.187,6.355 263.75,6.0648 264.36,6.0 L 264.36,5.0 C 264.375,4.9342 264.375,4.8658 264.36,4.8 264.339,4.7316 264.301,4.6697 264.25,4.62 264.202,4.5709 264.144,4.5333 264.08,4.51 264.011,4.4963 263.939,4.4963 263.87,4.51 263.799,4.5099 263.728,4.5243 263.662,4.5522 263.597,4.58 263.537,4.6209 263.488,4.6722 263.439,4.7236 263.4,4.7844 263.374,4.851 263.349,4.9177 263.337,4.9887 263.34,5.06 L 263.34,5.28 C 263.34,5.5368 263.242,5.7838 263.065,5.97 262.888,6.1562 262.646,6.2672 262.39,6.28 262.135,6.2647 261.896,6.1526 261.721,5.9667 261.547,5.7808 261.45,5.5351 261.45,5.28 261.441,5.2439 261.441,5.2061 261.45,5.17 261.468,5.1362 261.496,5.1084 261.53,5.09 261.563,5.0811 261.597,5.0811 261.63,5.09 261.666,5.0797 261.704,5.0797 261.74,5.09 261.771,5.1112 261.796,5.1395 261.814,5.1726 261.831,5.2057 261.84,5.2426 261.84,5.28 261.83,5.355 261.835,5.4314 261.857,5.504 261.879,5.5766 261.916,5.6437 261.965,5.7008 262.015,5.7579 262.077,5.8037 262.145,5.835 262.214,5.8664 262.289,5.8826 262.365,5.8826 262.441,5.8826 262.516,5.8664 262.585,5.835 262.653,5.8037 262.715,5.7579 262.765,5.7008 262.814,5.6437 262.851,5.5766 262.873,5.504 262.895,5.4314 262.9,5.355 262.89,5.28 L 262.89,5.0 C 262.89,4.7449 262.987,4.4992 263.161,4.3133 263.336,4.1274 263.575,4.0153 263.83,4.0 L 263.83,4.0 Z M 264.57,7.0 C 264.531,6.9883 264.489,6.9883 264.45,7.0 264.41,7.0173 264.373,7.0409 264.34,7.07 264.313,7.1009 264.29,7.1344 264.27,7.17 264.265,7.2132 264.265,7.2568 264.27,7.3 L 264.27,8.48 C 264.269,8.5229 264.276,8.5655 264.291,8.6055 264.307,8.6455 264.33,8.682 264.36,8.7128 264.39,8.7436 264.426,8.768 264.465,8.7847 264.505,8.8014 264.547,8.81 264.59,8.81 L 264.71,8.81 264.81,8.74 C 264.842,8.7099 264.866,8.672 264.88,8.63 264.89,8.5906 264.89,8.5494 264.88,8.51 L 264.88,7.4 C 264.89,7.3572 264.89,7.3128 264.88,7.27 264.864,7.2322 264.84,7.1982 264.81,7.17 L 264.71,7.1 C 264.671,7.091 264.63,7.091 264.59,7.1 L 264.57,7.0 Z" />
	<path style="stroke:#e0e0e0;stroke-width:0.67;stroke-miterlimit:4.0;fill:#ffffff;" d="M 251.67,0.6699 L 221.67,0.6699 C 221.405,0.6699 221.15,0.7753 220.963,0.9628 220.775,1.1503 220.67,1.4047 220.67,1.6699 L 220.67,16.3299 C 220.67,16.5951 220.775,16.8495 220.963,17.037 221.15,17.2246 221.405,17.3299 221.67,17.3299 L 251.67,17.3299 C 251.935,17.3299 252.189,17.2246 252.377,17.037 252.565,16.8495 252.67,16.5951 252.67,16.3299 L 252.67,1.6699 C 252.67,1.4047 252.565,1.1503 252.377,0.9628 252.189,0.7753 251.935,0.6699 251.67,0.6699 L 251.67,0.6699 Z" />
	<path style="fill-opacity:0.94;fill-rule:evenodd;fill:#2a2c83;" d="M 225.34,10.6401 C 225.34,10.6401 225.48,10.0201 225.86,8.6401 226.16,7.5701 226.45,6.5701 226.49,6.4201 L 226.58,6.1401 227.77,6.1401 C 229.16,6.1401 229.37,6.1401 229.6,6.2901 229.99,6.4901 230.1,6.8001 229.97,7.2901 229.86,7.7298 229.584,8.1098 229.2,8.3501 229.12,8.4101 229.04,8.4801 229.04,8.5001 229.04,8.5201 229.04,8.6001 229.17,8.6801 229.242,8.7387 229.303,8.8099 229.35,8.8901 229.42,9.142 229.42,9.4082 229.35,9.6601 229.301,9.8708 229.268,10.0847 229.25,10.3001 L 229.25,10.5701 228.67,10.5701 C 228.467,10.5953 228.262,10.5953 228.06,10.5701 228.0,10.5101 228.01,10.3701 228.06,9.9601 228.11,9.5501 228.17,9.3401 228.06,9.2301 227.95,9.1201 227.84,9.0501 227.42,9.0401 227.0,9.0301 227.03,9.0401 226.98,9.0401 226.93,9.0401 226.83,9.2901 226.64,9.9801 L 226.48,10.5601 226.0,10.5601 C 225.797,10.5716 225.593,10.5716 225.39,10.5601 L 225.34,10.6401 Z M 228.34,8.1201 C 228.62,8.0401 228.73,7.8701 228.73,7.5301 228.749,7.4581 228.749,7.3822 228.73,7.3101 228.65,7.2201 228.4,7.1801 227.93,7.2101 L 227.52,7.2101 227.46,7.4101 C 227.385,7.6238 227.335,7.8452 227.31,8.0701 227.31,8.1201 227.31,8.1401 227.43,8.1601 227.764,8.1831 228.1,8.1629 228.43,8.1001 L 228.34,8.1201 Z M 230.27,10.7301 C 230.105,10.6746 229.968,10.556 229.89,10.4001 229.77,10.1401 229.89,9.5501 230.3,8.1301 230.4,7.7901 230.48,7.5101 230.48,7.5001 230.48,7.5001 230.61,7.5001 230.97,7.5001 231.136,7.4832 231.304,7.4832 231.47,7.5001 L 231.55,7.5001 231.47,7.7601 C 231.29,8.4001 231.1,9.1701 231.07,9.4201 231.04,9.6701 231.07,9.7001 231.07,9.7701 231.07,9.8401 231.45,9.9701 231.7,9.8401 231.95,9.7101 232.04,9.5701 232.52,7.9501 232.546,7.7998 232.604,7.6567 232.69,7.5301 L 232.78,7.4401 233.25,7.4401 C 233.61,7.4401 233.72,7.4401 233.73,7.4401 233.74,7.4401 233.15,9.6601 232.9,10.5101 L 232.9,10.6501 231.9,10.6501 C 231.911,10.5986 231.928,10.5483 231.95,10.5001 232.05,10.2201 231.95,10.2001 231.55,10.5001 231.316,10.6946 231.024,10.8039 230.72,10.8101 230.575,10.8395 230.425,10.8395 230.28,10.8101 L 230.27,10.7301 Z M 233.62,10.6401 C 233.764,9.8848 233.958,9.1399 234.2,8.4101 L 234.83,6.2001 235.83,6.2001 C 237.14,6.2001 237.41,6.2001 237.66,6.3601 237.834,6.4291 237.979,6.5563 238.07,6.7201 238.147,6.8932 238.187,7.0806 238.187,7.2701 238.187,7.4597 238.147,7.6471 238.07,7.8201 237.976,8.1357 237.805,8.4232 237.573,8.657 237.341,8.8907 237.055,9.0636 236.74,9.1601 236.512,9.198 236.281,9.2213 236.05,9.2301 235.12,9.2901 235.18,9.2301 235.13,9.4001 235.08,9.5701 235.01,9.7701 234.92,10.0801 L 234.76,10.6501 234.18,10.6501 C 233.98,10.6614 233.78,10.6614 233.58,10.6501 L 233.62,10.6401 Z M 236.33,8.2601 C 236.445,8.2599 236.559,8.2292 236.659,8.1713 236.759,8.1134 236.842,8.0302 236.9,7.9301 236.952,7.8494 236.984,7.7576 236.995,7.6622 237.005,7.5668 236.993,7.4702 236.96,7.3801 236.87,7.2401 236.74,7.2101 236.25,7.2101 236.09,7.1963 235.93,7.1963 235.77,7.2101 235.667,7.5173 235.587,7.8315 235.53,8.1501 235.522,8.1796 235.522,8.2107 235.53,8.2401 235.789,8.2701 236.051,8.2701 236.31,8.2401 L 236.33,8.2601 Z M 238.04,10.7401 C 237.69,10.5901 237.6,10.3501 237.71,9.8701 237.88,9.1901 238.23,8.9701 239.45,8.7701 240.19,8.6401 240.37,8.5501 240.45,8.2901 240.53,8.0301 240.33,8.0001 240.0,8.0001 239.909,7.9925 239.818,8.0057 239.733,8.0386 239.648,8.0716 239.572,8.1234 239.51,8.1901 L 239.36,8.3101 239.0,8.3101 C 238.55,8.3101 238.41,8.3101 238.41,8.2401 238.483,8.0554 238.6,7.8908 238.75,7.7601 238.943,7.5946 239.172,7.4779 239.42,7.4201 240.003,7.2672 240.616,7.2672 241.2,7.4201 241.364,7.4922 241.5,7.6149 241.59,7.7701 241.66,7.9001 241.64,8.0301 241.31,9.2801 241.16,9.9001 241.03,10.4501 241.03,10.5201 L 241.03,10.6301 240.66,10.6301 240.15,10.6301 240.01,10.6301 239.95,10.4901 C 239.87,10.3201 239.87,10.3201 239.49,10.4901 239.217,10.633 238.917,10.7149 238.61,10.7301 238.444,10.7567 238.274,10.7359 238.12,10.6701 L 238.04,10.7401 Z M 239.66,10.0501 C 239.781,9.9726 239.883,9.87 239.961,9.7492 240.039,9.6284 240.089,9.4923 240.11,9.3501 L 240.11,9.2301 239.92,9.2301 C 239.631,9.2727 239.351,9.3605 239.09,9.4901 239.027,9.5293 238.973,9.5802 238.93,9.6401 238.895,9.7085 238.874,9.7834 238.87,9.8601 238.87,10.0001 238.87,10.0401 238.99,10.0801 239.21,10.1336 239.44,10.1336 239.66,10.0801 L 239.66,10.0501 Z M 241.32,12.0501 C 241.2,12.0501 241.2,11.9701 241.32,11.6501 241.44,11.3301 241.42,11.2201 241.7,11.1801 241.98,11.1401 242.13,11.0701 242.2,10.9401 242.294,10.1931 242.294,9.4372 242.2,8.6901 242.171,8.2673 242.171,7.843 242.2,7.4201 242.2,7.4201 242.37,7.4201 242.77,7.4201 L 243.3,7.4201 243.3,8.4201 C 243.279,8.7531 243.279,9.0871 243.3,9.4201 243.36,9.4701 243.56,9.1401 244.39,7.6201 L 244.5,7.4001 245.0,7.4001 C 245.16,7.3877 245.32,7.3877 245.48,7.4001 245.48,7.4001 244.78,8.6901 244.06,9.9001 243.06,11.6301 242.85,11.9001 242.37,12.0001 242.039,12.0524 241.704,12.0691 241.37,12.0501 L 241.32,12.0501 Z" />
	<path style="fill-rule:evenodd;fill:#097a44;" d="M 245.79,11.6698 L 247.19,6.5898 248.53,9.2198 245.79,11.6698 Z" />
	<path style="fill-rule:evenodd;fill:#f46f20;" d="M 244.91,11.6899 L 246.32,6.6099 247.66,9.2399 244.91,11.6899 Z" />
	<path style="fill:#ffffff;" d="M 214.43,1.0 L 185.57,1.0 C 185.242,1.0026 184.928,1.1341 184.696,1.3661 184.464,1.5981 184.333,1.9119 184.33,2.24 L 184.33,15.76 C 184.333,16.0881 184.464,16.4019 184.696,16.6339 184.928,16.8659 185.242,16.9974 185.57,17.0 L 214.43,17.0 C 214.758,16.9974 215.072,16.8659 215.304,16.6339 215.536,16.4019 215.667,16.0881 215.67,15.76 L 215.67,2.24 C 215.667,1.9119 215.536,1.5981 215.304,1.3661 215.072,1.1341 214.758,1.0026 214.43,1.0 Z" />
	<path style="fill:#f58220;" d="M 195.45,17.0 L 214.45,17.0 C 214.613,17.0013 214.774,16.9705 214.924,16.9093 215.074,16.848 215.211,16.7576 215.326,16.6433 215.442,16.5289 215.533,16.3929 215.596,16.243 215.658,16.0931 215.69,15.9324 215.69,15.77 L 215.69,10.0 C 215.69,10.0 208.55,14.84 195.47,17.0 L 195.45,17.0 Z" />
	<path style="fill-rule:evenodd;fill:#1a1919;" d="M 189.06,8.44 C 188.778,8.6661 188.42,8.7737 188.06,8.74 L 187.86,8.74 187.86,6.31 188.06,6.31 C 188.238,6.2916 188.418,6.3087 188.59,6.3602 188.761,6.4117 188.921,6.4966 189.06,6.61 189.189,6.7234 189.293,6.8633 189.364,7.0203 189.435,7.1774 189.471,7.3478 189.47,7.52 189.471,7.6937 189.435,7.8656 189.364,8.0243 189.294,8.1829 189.19,8.3247 189.06,8.44 L 189.06,8.44 Z M 188.2,5.69 L 187.11,5.69 187.11,9.36 188.19,9.36 C 188.68,9.3841 189.163,9.2315 189.55,8.93 189.762,8.7608 189.932,8.5463 190.05,8.3023 190.168,8.0583 190.229,7.7909 190.23,7.52 190.228,7.2656 190.174,7.0143 190.07,6.7818 189.967,6.5494 189.816,6.3408 189.629,6.169 189.441,5.9973 189.22,5.8661 188.979,5.7837 188.739,5.7012 188.483,5.6693 188.23,5.69 L 188.2,5.69 Z M 190.58,5.69 L 191.31,5.69 191.31,9.36 190.58,9.36 190.58,5.69 Z M 193.12,7.09 C 192.68,6.94 192.55,6.83 192.55,6.63 192.55,6.43 192.78,6.23 193.1,6.23 193.215,6.231 193.329,6.2575 193.432,6.3077 193.536,6.3578 193.627,6.4303 193.7,6.52 L 194.08,6.03 C 193.771,5.766 193.376,5.6238 192.97,5.63 192.681,5.6078 192.395,5.7004 192.174,5.8876 191.954,6.0748 191.815,6.3415 191.79,6.63 191.79,7.13 192.02,7.39 192.72,7.63 192.896,7.6854 193.066,7.7557 193.23,7.84 193.295,7.8801 193.35,7.9349 193.39,8.0 193.428,8.0671 193.449,8.1428 193.45,8.22 193.449,8.2922 193.433,8.3635 193.403,8.4294 193.373,8.4952 193.331,8.5543 193.277,8.603 193.224,8.6517 193.161,8.689 193.093,8.7126 193.024,8.7361 192.952,8.7454 192.88,8.74 192.711,8.7421 192.545,8.697 192.4,8.61 192.258,8.5231 192.144,8.3984 192.07,8.25 L 191.59,8.7 C 191.73,8.9218 191.925,9.1032 192.157,9.226 192.388,9.3489 192.648,9.4088 192.91,9.4 193.077,9.4138 193.245,9.3928 193.404,9.3383 193.562,9.2837 193.708,9.1967 193.831,9.083 193.954,8.9692 194.052,8.8311 194.119,8.6774 194.186,8.5236 194.22,8.3577 194.22,8.19 194.22,7.61 193.96,7.34 193.12,7.04 L 193.12,7.09 Z M 194.45,7.52 C 194.451,7.7786 194.504,8.0343 194.606,8.272 194.708,8.5097 194.857,8.7244 195.043,8.9035 195.23,9.0826 195.45,9.2224 195.692,9.3146 195.934,9.4067 196.191,9.4494 196.45,9.44 196.773,9.4429 197.092,9.3674 197.38,9.22 L 197.38,8.38 C 197.267,8.5065 197.128,8.6076 196.973,8.6766 196.818,8.7455 196.65,8.7808 196.48,8.78 196.312,8.787 196.145,8.7592 195.988,8.6985 195.831,8.6378 195.689,8.5454 195.57,8.4271 195.451,8.3088 195.357,8.1672 195.295,8.0111 195.233,7.855 195.204,7.6878 195.21,7.52 195.207,7.3555 195.237,7.1921 195.298,7.0393 195.36,6.8865 195.45,6.7475 195.566,6.6302 195.681,6.5129 195.819,6.4198 195.971,6.3563 196.122,6.2927 196.285,6.26 196.45,6.26 196.625,6.2606 196.798,6.2973 196.958,6.3679 197.118,6.4384 197.261,6.5413 197.38,6.67 L 197.38,5.83 C 197.099,5.6835 196.787,5.6079 196.47,5.61 195.951,5.6043 195.451,5.8003 195.074,6.1566 194.697,6.513 194.473,7.0018 194.45,7.52 L 194.45,7.52 Z M 203.37,8.15 L 202.37,5.69 201.56,5.69 203.17,9.45 203.57,9.45 205.21,5.69 204.41,5.69 203.41,8.15 203.37,8.15 Z M 205.53,9.36 L 207.63,9.36 207.63,8.74 206.27,8.74 206.27,7.74 207.58,7.74 207.58,7.12 206.27,7.12 206.27,6.31 207.63,6.31 207.63,5.69 205.53,5.69 205.53,9.36 Z M 209.07,7.36 L 208.86,7.36 208.86,6.27 209.09,6.27 C 209.55,6.27 209.8,6.45 209.8,6.81 209.8,7.17 209.55,7.38 209.07,7.38 L 209.07,7.36 Z M 210.56,6.75 C 210.56,6.06 210.07,5.67 209.22,5.67 L 208.12,5.67 208.12,9.36 208.86,9.36 208.86,7.88 208.96,7.88 209.96,9.36 210.87,9.36 209.7,7.81 C 209.94,7.776 210.16,7.6559 210.318,7.4719 210.476,7.2879 210.562,7.0526 210.56,6.81 L 210.56,6.75 Z" />
	<path style="fill-rule:evenodd;fill:#f58220;" d="M 201.66,7.5298 C 201.66,8.0602 201.449,8.5689 201.074,8.944 200.699,9.3191 200.191,9.5298 199.66,9.5298 199.13,9.5298 198.621,9.3191 198.246,8.944 197.871,8.5689 197.66,8.0602 197.66,7.5298 197.66,6.9993 197.871,6.4906 198.246,6.1156 198.621,5.7405 199.13,5.5298 199.66,5.5298 200.191,5.5298 200.699,5.7405 201.074,6.1156 201.449,6.4906 201.66,6.9993 201.66,7.5298 L 201.66,7.5298 Z" />
	<path style="stroke:#e0e0e0;stroke-width:0.67;stroke-miterlimit:4.0;fill:#ffffff;" d="M 178.33,0.6699 L 148.33,0.6699 C 148.065,0.6699 147.811,0.7753 147.623,0.9628 147.435,1.1503 147.33,1.4047 147.33,1.6699 L 147.33,16.3299 C 147.33,16.5951 147.435,16.8495 147.623,17.037 147.811,17.2246 148.065,17.3299 148.33,17.3299 L 178.33,17.3299 C 178.595,17.3299 178.85,17.2246 179.037,17.037 179.225,16.8495 179.33,16.5951 179.33,16.3299 L 179.33,1.6699 C 179.33,1.4047 179.225,1.1503 179.037,0.9628 178.85,0.7753 178.595,0.6699 178.33,0.6699 L 178.33,0.6699 Z" />
	<path style="fill-rule:evenodd;fill:#184977;" d="M 160.3,4.0 L 166.41,4.0 C 167.736,4.0 169.008,4.5268 169.945,5.4645 170.883,6.4021 171.41,7.6739 171.41,9.0 171.41,9.9894 171.116,10.9565 170.566,11.7789 170.016,12.6013 169.234,13.242 168.32,13.62 167.711,13.8704 167.058,13.9995 166.4,14.0 L 160.3,14.0 160.3,4.0 Z" />
	<path style="stroke:#184977;stroke-width:1.0;stroke-miterlimit:4.0;fill:#ffffff;" d="M 160.3,13.5002 C 161.188,13.4903 162.053,13.2181 162.786,12.7176 163.52,12.2172 164.089,11.511 164.422,10.6879 164.755,9.8648 164.837,8.9617 164.657,8.0921 164.478,7.2225 164.046,6.4253 163.414,5.801 162.783,5.1766 161.981,4.753 161.11,4.5834 160.238,4.4138 159.336,4.5057 158.517,4.8477 157.697,5.1898 156.997,5.7665 156.505,6.5054 156.013,7.2443 155.75,8.1123 155.75,9.0002 155.753,9.5946 155.872,10.1827 156.103,10.7307 156.333,11.2788 156.669,11.776 157.092,12.194 157.514,12.612 158.015,12.9426 158.566,13.1667 159.116,13.3908 159.706,13.5042 160.3,13.5002 L 160.3,13.5002 Z" />
	<path style="fill-rule:evenodd;fill:#184977;" d="M 162.32,9.0 C 162.321,8.516 162.179,8.0426 161.91,7.64 161.641,7.2395 161.258,6.9294 160.81,6.75 L 160.81,11.25 C 161.258,11.0706 161.641,10.7605 161.91,10.36 162.179,9.9574 162.321,9.484 162.32,9.0 L 162.32,9.0 Z M 159.8,11.25 L 159.8,6.75 C 159.349,6.9286 158.962,7.2386 158.689,7.6398 158.417,8.041 158.271,8.5149 158.271,9.0 158.271,9.4851 158.417,9.959 158.689,10.3602 158.962,10.7614 159.349,11.0714 159.8,11.25 L 159.8,11.25 Z" />
	<path style="stroke:#e0e0e0;stroke-width:0.67;stroke-miterlimit:4.0;fill:#ffffff;" d="M 141.67,0.6699 L 111.67,0.6699 C 111.405,0.6699 111.15,0.7753 110.963,0.9628 110.775,1.1503 110.67,1.4047 110.67,1.6699 L 110.67,16.3299 C 110.67,16.5951 110.775,16.8495 110.963,17.037 111.15,17.2246 111.405,17.3299 111.67,17.3299 L 141.67,17.3299 C 141.935,17.3299 142.189,17.2246 142.377,17.037 142.565,16.8495 142.67,16.5951 142.67,16.3299 L 142.67,1.6699 C 142.67,1.4047 142.565,1.1503 142.377,0.9628 142.189,0.7753 141.935,0.6699 141.67,0.6699 L 141.67,0.6699 Z" />
	<path style="fill:#0079c1;" d="M 128.79,11.69 L 128.51,11.35 128.51,11.69 127.59,11.69 127.59,11.1 C 127.472,11.1591 127.342,11.1899 127.21,11.19 L 126.88,11.19 126.88,11.69 125.5,11.69 125.25,11.36 125.0,11.69 122.71,11.69 122.71,9.51 125.0,9.51 125.25,9.83 125.5,9.51 133.9,9.51 133.9,2.0 120.0,2.0 120.0,7.87 120.52,6.64 121.42,6.64 121.72,7.32 121.72,6.64 122.84,6.64 123.02,7.14 123.19,6.64 128.19,6.64 128.19,6.89 C 128.393,6.7243 128.648,6.6357 128.91,6.64 L 130.51,6.64 130.81,7.32 130.81,6.64 131.76,6.64 132.0,7.0 132.0,6.64 133.0,6.64 133.0,8.82 132.0,8.82 131.75,8.43 131.75,8.82 130.37,8.82 130.23,8.49 129.86,8.49 129.72,8.82 128.87,8.82 C 128.619,8.8327 128.373,8.7506 128.18,8.59 L 128.18,8.82 126.77,8.82 126.49,8.48 126.49,8.82 121.25,8.82 121.12,8.49 120.74,8.49 120.6,8.82 120.0,8.82 120.0,15.91 133.91,15.91 133.91,11.53 C 133.756,11.641 133.57,11.6973 133.38,11.69 L 128.79,11.69 Z" />
	<path style="fill:#0079c1;" d="M 133.92,9.7802 L 133.76,10.1502 132.98,9.9902 C 132.964,9.9836 132.947,9.9802 132.93,9.9802 132.913,9.9802 132.896,9.9836 132.88,9.9902 132.871,10.0195 132.871,10.0509 132.88,10.0802 132.88,10.1173 132.895,10.1529 132.921,10.1792 132.947,10.2054 132.983,10.2202 133.02,10.2202 L 133.4,10.2202 C 133.73,10.2202 133.92,10.3902 133.92,10.6902 133.934,10.7595 133.934,10.8309 133.92,10.9002 133.892,10.9699 133.847,11.0317 133.79,11.0802 133.736,11.1298 133.673,11.1678 133.605,11.1919 133.536,11.216 133.463,11.2256 133.39,11.2202 L 132.54,11.2202 132.54,10.8502 133.46,10.8502 C 133.466,10.8341 133.466,10.8163 133.46,10.8002 133.465,10.7805 133.465,10.7599 133.46,10.7402 L 133.41,10.7402 132.96,10.7402 C 132.894,10.7545 132.826,10.7545 132.76,10.7402 132.696,10.7208 132.638,10.6865 132.59,10.6402 132.539,10.5942 132.501,10.5356 132.48,10.4702 132.466,10.4077 132.466,10.3427 132.48,10.2802 132.48,10.2072 132.497,10.1352 132.53,10.0702 132.558,10.0031 132.599,9.942 132.65,9.8902 132.705,9.8404 132.769,9.8029 132.84,9.7802 132.909,9.7653 132.981,9.7653 133.05,9.7802 L 133.92,9.7802 Z" />
	<path style="stroke:#e0e0e0;stroke-width:0.67;stroke-miterlimit:4.0;fill:#ffffff;" d="M 105.0,0.6699 L 75.0,0.6699 C 74.7348,0.6699 74.4804,0.7753 74.2929,0.9628 74.1054,1.1503 74.0,1.4047 74.0,1.6699 L 74.0,16.3299 C 74.0,16.5951 74.1054,16.8495 74.2929,17.037 74.4804,17.2246 74.7348,17.3299 75.0,17.3299 L 105.0,17.3299 C 105.265,17.3299 105.52,17.2246 105.707,17.037 105.895,16.8495 106.0,16.5951 106.0,16.3299 L 106.0,1.6699 C 106.0,1.4047 105.895,1.1503 105.707,0.9628 105.52,0.7753 105.265,0.6699 105.0,0.6699 L 105.0,0.6699 Z" />
	<path style="fill:#007bdb;" d="M 86.46,14.0 C 87.4489,14.0 88.4156,13.7068 89.2378,13.1573 90.0601,12.6079 90.7009,11.827 91.0794,10.9134 91.4578,9.9998 91.5568,8.9945 91.3639,8.0245 91.171,7.0546 90.6948,6.1637 89.9955,5.4645 89.2962,4.7652 88.4053,4.289 87.4354,4.0961 86.4655,3.9032 85.4602,4.0022 84.5465,4.3806 83.6329,4.759 82.852,5.3999 82.3026,6.2222 81.7532,7.0444 81.46,8.0111 81.46,9.0 81.46,10.3261 81.9867,11.5979 82.9244,12.5355 83.8621,13.4732 85.1339,14.0 86.46,14.0 L 86.46,14.0 Z" />
	<path style="fill:#e42b00;" d="M 93.54,14.0001 C 94.5262,13.9883 95.487,13.685 96.3013,13.1285 97.1156,12.5719 97.7471,11.7869 98.1164,10.8723 98.4856,9.9577 98.5761,8.9543 98.3765,7.9884 98.1768,7.0225 97.696,6.1372 96.9944,5.4439 96.2928,4.7507 95.4018,4.2804 94.4336,4.0923 93.4653,3.9042 92.4631,4.0066 91.553,4.3868 90.6428,4.7669 89.8654,5.4077 89.3186,6.2286 88.7718,7.0495 88.4801,8.0138 88.48,9.0001 88.4799,9.6618 88.6112,10.3169 88.8662,10.9275 89.1213,11.5381 89.4949,12.092 89.9656,12.557 90.4363,13.0221 90.9946,13.3892 91.6081,13.6369 92.2217,13.8846 92.8783,14.0081 93.54,14.0001 L 93.54,14.0001 Z" />
	<path style="fill-rule:evenodd;fill:#1740ce;" d="M 90.0,12.5799 C 90.8967,11.5927 91.4325,10.3308 91.52,8.9999 91.4325,7.6691 90.8967,6.4072 90.0,5.4199 89.5084,5.8756 89.1187,6.4302 88.8568,7.0472 88.5948,7.6642 88.4664,8.3297 88.48,8.9999 88.4683,9.6699 88.5975,10.3348 88.8594,10.9515 89.1213,11.5683 89.5099,12.1231 90.0,12.5799 L 90.0,12.5799 Z" />
	<path style="stroke:#e0e0e0;stroke-width:0.67;stroke-miterlimit:4.0;fill:#ffffff;" d="M 68.3301,0.6699 L 38.3301,0.6699 C 38.0649,0.6699 37.8105,0.7753 37.623,0.9628 37.4354,1.1503 37.3301,1.4047 37.3301,1.6699 L 37.3301,16.3299 C 37.3301,16.5951 37.4354,16.8495 37.623,17.037 37.8105,17.2246 38.0649,17.3299 38.3301,17.3299 L 68.3301,17.3299 C 68.5953,17.3299 68.8496,17.2246 69.0372,17.037 69.2247,16.8495 69.3301,16.5951 69.3301,16.3299 L 69.3301,1.6699 C 69.3301,1.4047 69.2247,1.1503 69.0372,0.9628 68.8496,0.7753 68.5953,0.6699 68.3301,0.6699 L 68.3301,0.6699 Z" />
	<path style="fill:#cc0000;" d="M 49.8002,14.0001 C 50.7865,13.9883 51.7472,13.685 52.5615,13.1285 53.3759,12.5719 54.0074,11.7869 54.3766,10.8723 54.7459,9.9577 54.8364,8.9543 54.6367,7.9884 54.4371,7.0225 53.9562,6.1372 53.2546,5.4439 52.553,4.7507 51.6621,4.2804 50.6938,4.0923 49.7256,3.9042 48.7234,4.0066 47.8132,4.3868 46.9031,4.7669 46.1257,5.4077 45.5789,6.2286 45.0321,7.0495 44.7403,8.0138 44.7402,9.0001 44.7402,9.6618 44.8715,10.3169 45.1265,10.9275 45.3815,11.5381 45.7552,12.092 46.2258,12.557 46.6965,13.0221 47.2548,13.3892 47.8684,13.6369 48.482,13.8846 49.1386,14.0081 49.8002,14.0001 L 49.8002,14.0001 Z" />
	<path style="fill:#ff9900;" d="M 56.8701,14.0 C 57.859,14.0 58.8257,13.7068 59.648,13.1573 60.4702,12.6079 61.1111,11.827 61.4895,10.9134 61.868,9.9998 61.967,8.9945 61.774,8.0245 61.5811,7.0546 61.1049,6.1637 60.4057,5.4645 59.7064,4.7652 58.8155,4.289 57.8456,4.0961 56.8757,3.9032 55.8703,4.0022 54.9567,4.3806 54.0431,4.759 53.2622,5.3999 52.7128,6.2222 52.1634,7.0444 51.8701,8.0111 51.8701,9.0 51.8701,10.3261 52.3969,11.5979 53.3346,12.5355 54.2723,13.4732 55.544,14.0 56.8701,14.0 L 56.8701,14.0 Z" />
	<path style="fill-rule:evenodd;fill:#f16d27;" d="M 53.3299,12.5799 C 54.2267,11.5927 54.7625,10.3308 54.8499,8.9999 54.7625,7.6691 54.2267,6.4072 53.3299,5.4199 52.8406,5.8769 52.4532,6.4319 52.193,7.0488 51.9328,7.6657 51.8057,8.3306 51.8199,8.9999 51.8076,9.669 51.9356,10.3333 52.1956,10.9499 52.4557,11.5665 52.8421,12.1218 53.3299,12.5799 L 53.3299,12.5799 Z" />
	<path style="stroke:#e0e0e0;stroke-width:0.67;stroke-miterlimit:4.0;fill:#ffffff;" d="M 31.6699,0.6699 L 1.6699,0.6699 C 1.4047,0.6699 1.1503,0.7753 0.9628,0.9628 0.7753,1.1503 0.6699,1.4047 0.6699,1.6699 L 0.6699,16.3299 C 0.6699,16.5951 0.7753,16.8495 0.9628,17.037 1.1503,17.2246 1.4047,17.3299 1.6699,17.3299 L 31.6699,17.3299 C 31.9351,17.3299 32.1895,17.2246 32.377,17.037 32.5646,16.8495 32.6699,16.5951 32.6699,16.3299 L 32.6699,1.6699 C 32.6699,1.4047 32.5646,1.1503 32.377,0.9628 32.1895,0.7753 31.9351,0.6699 31.6699,0.6699 L 31.6699,0.6699 Z" />
	<path style="fill:#1a1f71;" d="M 14.0,5.8 L 11.25,12.36 9.43,12.36 8.08,7.12 C 8.0641,6.9972 8.0184,6.8802 7.9469,6.7791 7.8755,6.678 7.7804,6.5959 7.67,6.54 7.1372,6.2932 6.5764,6.1119 6.0,6.0 L 6.0,5.8 8.93,5.8 C 9.1186,5.8028 9.2998,5.8738 9.44,6.0 9.5802,6.126 9.6751,6.2947 9.71,6.48 L 10.42,10.28 12.19,5.8 14.0,5.8 Z M 21.0,10.22 C 21.0,8.48 18.61,8.39 18.62,7.61 18.62,7.38 18.85,7.13 19.34,7.07 19.9094,7.0136 20.4834,7.1139 21.0,7.36 L 21.31,6.0 C 20.8052,5.8087 20.2699,5.7104 19.73,5.71 18.06,5.71 16.87,6.6 16.86,7.88 16.86,8.82 17.7,9.35 18.35,9.66 19.0,9.97 19.23,10.19 19.23,10.48 19.23,10.92 18.7,11.11 18.23,11.12 17.6233,11.1336 17.0236,10.9888 16.49,10.7 L 16.18,12.14 C 16.7831,12.3719 17.4238,12.4906 18.07,12.49 19.85,12.49 21.02,11.61 21.02,10.25 L 21.0,10.22 Z M 25.43,12.35 L 27.0,12.35 25.63,5.8 24.18,5.8 C 24.0266,5.797 23.8761,5.8425 23.75,5.93 23.6181,6.0122 23.5163,6.135 23.46,6.28 L 20.91,12.36 22.69,12.36 23.05,11.36 25.23,11.36 25.43,12.35 Z M 23.54,10.0 L 24.43,7.54 24.94,10.0 23.54,10.0 Z M 16.4,5.8 L 15.0,12.36 13.3,12.36 14.7,5.8 16.4,5.8 Z" />
</g>
</svg>